<svg width="64" height="64" viewBox="0 0 64 64" fill="none" xmlns="http://www.w3.org/2000/svg">
<rect width="64" height="64" rx="32" fill="#2A374A"/>
<path d="M48.2004 32.0292C48.1537 39.053 46.1701 46.5092 41.0559 51.6166C36.482 56.1843 29.944 56.5887 24.8508 52.6377C19.3387 48.3612 16.9929 40.8696 16.5009 34.2191C15.965 26.9701 17.7638 19.0242 22.5921 13.3964C24.7413 10.892 27.6485 9.00799 30.9772 8.58088C34.1865 8.16961 37.2857 9.40717 39.7762 11.3395C45.8901 16.0822 48.1513 24.6821 48.2004 32.0292C48.203 32.4295 49.0486 32.2747 49.0465 31.9474C49.0018 25.2465 47.2198 18.3153 42.7665 13.1245C39.3663 9.16081 34.2495 7.0253 29.0738 8.43497C23.4937 9.95515 19.7569 15.1558 17.7318 20.2257C15.0695 26.8924 14.9286 34.588 16.8947 41.4479C19.1969 49.4802 26.1683 58.0985 35.5528 55.5419C45.2949 52.8881 48.9876 40.7491 49.0465 31.9474C49.0492 31.5482 48.2027 31.7011 48.2004 32.0292Z" fill="white"/>
<path d="M48.2004 32.0292C48.1537 39.053 46.1701 46.5092 41.0559 51.6166C36.482 56.1843 29.944 56.5887 24.8508 52.6377C19.3387 48.3612 16.9929 40.8696 16.5009 34.2191C15.965 26.9701 17.7638 19.0242 22.5921 13.3964C24.7413 10.892 27.6485 9.00799 30.9772 8.58088C34.1865 8.16961 37.2857 9.40717 39.7762 11.3395C45.8901 16.0822 48.1513 24.6821 48.2004 32.0292C48.203 32.4295 49.0486 32.2747 49.0465 31.9474C49.0018 25.2465 47.2198 18.3153 42.7665 13.1245C39.3663 9.16081 34.2495 7.0253 29.0738 8.43497C23.4937 9.95515 19.7569 15.1558 17.7318 20.2257C15.0695 26.8924 14.9286 34.588 16.8947 41.4479C19.1969 49.4802 26.1683 58.0985 35.5528 55.5419C45.2949 52.8881 48.9876 40.7491 49.0465 31.9474C49.0492 31.5482 48.2027 31.7011 48.2004 32.0292Z" fill="url(#paint0_linear_484_41)"/>
<path d="M47.3794 36.912C45.1676 43.5872 40.9996 50.0807 34.6121 53.3765C28.8985 56.3232 22.6219 54.7027 19.0491 49.3777C15.1826 43.614 15.2887 35.7585 16.8784 29.2724C18.6117 22.2041 22.7564 15.1874 29.0361 11.3085C31.8313 9.58226 35.1492 8.67948 38.4119 9.29402C41.5583 9.88664 44.0922 12.0162 45.8388 14.6208C50.1277 21.0134 49.6007 29.8985 47.3791 36.9118C47.2581 37.2931 48.1015 37.4052 48.2001 37.0931C50.2263 30.6972 50.6892 23.5482 48.1015 17.2377C46.1259 12.42 41.9706 8.81582 36.6659 8.5711C30.9474 8.30678 25.8248 12.1145 22.3549 16.322C17.7925 21.8548 15.2846 29.1419 15.0174 36.2788C14.7042 44.6349 18.6031 54.9826 28.222 55.427C38.2076 55.8882 45.4285 45.4587 48.2004 37.0933C48.3263 36.7137 47.4828 36.5999 47.3794 36.912Z" fill="white"/>
<path d="M47.3794 36.912C45.1676 43.5872 40.9996 50.0807 34.6121 53.3765C28.8985 56.3232 22.6219 54.7027 19.0491 49.3777C15.1826 43.614 15.2887 35.7585 16.8784 29.2724C18.6117 22.2041 22.7564 15.1874 29.0361 11.3085C31.8313 9.58226 35.1492 8.67948 38.4119 9.29402C41.5583 9.88664 44.0922 12.0162 45.8388 14.6208C50.1277 21.0134 49.6007 29.8985 47.3791 36.9118C47.2581 37.2931 48.1015 37.4052 48.2001 37.0931C50.2263 30.6972 50.6892 23.5482 48.1015 17.2377C46.1259 12.42 41.9706 8.81582 36.6659 8.5711C30.9474 8.30678 25.8248 12.1145 22.3549 16.322C17.7925 21.8548 15.2846 29.1419 15.0174 36.2788C14.7042 44.6349 18.6031 54.9826 28.222 55.427C38.2076 55.8882 45.4285 45.4587 48.2004 37.0933C48.3263 36.7137 47.4828 36.5999 47.3794 36.912Z" fill="url(#paint1_linear_484_41)"/>
<path d="M47.3397 26.9774C49.5369 33.6662 50.0592 41.3823 46.8998 47.861C44.0732 53.6558 38.0793 56.1189 32.0485 53.9837C25.522 51.6727 20.9345 45.2997 18.3514 39.1357C15.5363 32.4181 14.685 24.2949 17.4106 17.4127C18.6236 14.3495 20.7462 11.6344 23.7267 10.1709C26.6009 8.75962 29.8981 8.95042 32.847 9.99508C40.0867 12.5581 44.9486 20.0118 47.3397 26.9777C47.4697 27.3567 48.2125 26.9408 48.1057 26.6305C45.9254 20.2774 42.0448 14.2574 36.2173 10.7401C31.7677 8.055 26.2952 7.65204 21.8975 10.6373C17.1571 13.8556 15.3161 19.9861 15.0376 25.4472C14.6718 32.6288 16.9963 39.9864 21.0267 45.8799C25.7459 52.7806 35.0247 58.7544 42.9983 53.342C51.2751 47.7224 50.859 35.0137 48.1054 26.6307C47.9808 26.2506 47.2372 26.6651 47.3394 26.978L47.3397 26.9774Z" fill="white"/>
<path d="M47.3397 26.9774C49.5369 33.6662 50.0592 41.3823 46.8998 47.861C44.0732 53.6558 38.0793 56.1189 32.0485 53.9837C25.522 51.6727 20.9345 45.2997 18.3514 39.1357C15.5363 32.4181 14.685 24.2949 17.4106 17.4127C18.6236 14.3495 20.7462 11.6344 23.7267 10.1709C26.6009 8.75962 29.8981 8.95042 32.847 9.99508C40.0867 12.5581 44.9486 20.0118 47.3397 26.9777C47.4697 27.3567 48.2125 26.9408 48.1057 26.6305C45.9254 20.2774 42.0448 14.2574 36.2173 10.7401C31.7677 8.055 26.2952 7.65204 21.8975 10.6373C17.1571 13.8556 15.3161 19.9861 15.0376 25.4472C14.6718 32.6288 16.9963 39.9864 21.0267 45.8799C25.7459 52.7806 35.0247 58.7544 42.9983 53.342C51.2751 47.7224 50.859 35.0137 48.1054 26.6307C47.9808 26.2506 47.2372 26.6651 47.3394 26.978L47.3397 26.9774Z" fill="url(#paint2_linear_484_41)"/>
<path fill-rule="evenodd" clip-rule="evenodd" d="M26.2789 24.7974L24.277 32.9649C24.2 33.2793 23.9106 33.5846 23.5708 33.5851C23.1852 33.5854 23.0195 33.2139 23.1111 32.8738L25.2851 24.7974H26.2789Z" fill="white"/>
<path fill-rule="evenodd" clip-rule="evenodd" d="M26.2789 24.7974L24.277 32.9649C24.2 33.2793 23.9106 33.5846 23.5708 33.5851C23.1852 33.5854 23.0195 33.2139 23.1111 32.8738L25.2851 24.7974H26.2789Z" fill="url(#paint3_linear_484_41)"/>
<path fill-rule="evenodd" clip-rule="evenodd" d="M28.4615 24.7974L26.8386 35.008C26.7844 35.349 26.5048 35.7038 26.1353 35.7043C25.7336 35.7049 25.5517 35.3034 25.6169 34.9469L27.4749 24.7974H28.4618H28.4615Z" fill="white"/>
<path fill-rule="evenodd" clip-rule="evenodd" d="M28.4615 24.7974L26.8386 35.008C26.7844 35.349 26.5048 35.7038 26.1353 35.7043C25.7336 35.7049 25.5517 35.3034 25.6169 34.9469L27.4749 24.7974H28.4618H28.4615Z" fill="url(#paint4_linear_484_41)"/>
<path fill-rule="evenodd" clip-rule="evenodd" d="M30.6444 24.7974L29.6575 38.344C29.6302 38.7202 29.3696 39.1626 28.95 39.1634C28.5122 39.1643 28.3148 38.6965 28.352 38.3144L29.6622 24.7974H30.6447H30.6444Z" fill="white"/>
<path fill-rule="evenodd" clip-rule="evenodd" d="M30.6444 24.7974L29.6575 38.344C29.6302 38.7202 29.3696 39.1626 28.95 39.1634C28.5122 39.1643 28.3148 38.6965 28.352 38.3144L29.6622 24.7974H30.6447H30.6444Z" fill="url(#paint5_linear_484_41)"/>
<path fill-rule="evenodd" clip-rule="evenodd" d="M32.9217 24.7441L33.1583 40.4864C33.1646 40.9043 32.9418 41.4872 32.4525 41.4883C31.9625 41.4895 31.7391 40.9075 31.7443 40.4896L31.9394 24.7441H32.9219H32.9217Z" fill="white"/>
<path fill-rule="evenodd" clip-rule="evenodd" d="M32.9217 24.7441L33.1583 40.4864C33.1646 40.9043 32.9418 41.4872 32.4525 41.4883C31.9625 41.4895 31.7391 40.9075 31.7443 40.4896L31.9394 24.7441H32.9219H32.9217Z" fill="url(#paint6_linear_484_41)"/>
<path fill-rule="evenodd" clip-rule="evenodd" d="M35.0116 24.7974L36.3515 38.2999C36.3893 38.6812 36.1936 39.149 35.7558 39.1499C35.3367 39.1507 35.0756 38.7089 35.0477 38.3337L34.0303 24.7974H35.0119H35.0116Z" fill="white"/>
<path fill-rule="evenodd" clip-rule="evenodd" d="M35.0116 24.7974L36.3515 38.2999C36.3893 38.6812 36.1936 39.149 35.7558 39.1499C35.3367 39.1507 35.0756 38.7089 35.0477 38.3337L34.0303 24.7974H35.0119H35.0116Z" fill="url(#paint7_linear_484_41)"/>
<path fill-rule="evenodd" clip-rule="evenodd" d="M37.1965 24.7974L39.0725 34.9265C39.1385 35.2821 38.9575 35.6842 38.5569 35.6847C38.1874 35.6853 37.9081 35.3317 37.8531 34.991L36.2103 24.7974H37.1965Z" fill="white"/>
<path fill-rule="evenodd" clip-rule="evenodd" d="M37.1965 24.7974L39.0725 34.9265C39.1385 35.2821 38.9575 35.6842 38.5569 35.6847C38.1874 35.6853 37.9081 35.3317 37.8531 34.991L36.2103 24.7974H37.1965Z" fill="url(#paint8_linear_484_41)"/>
<path fill-rule="evenodd" clip-rule="evenodd" d="M39.3814 24.7974L41.5649 32.8499C41.6571 33.1894 41.4932 33.5609 41.1078 33.5612C40.7686 33.5618 40.4792 33.2572 40.402 32.9439L38.3889 24.7974H39.3817H39.3814Z" fill="white"/>
<path fill-rule="evenodd" clip-rule="evenodd" d="M39.3814 24.7974L41.5649 32.8499C41.6571 33.1894 41.4932 33.5609 41.1078 33.5612C40.7686 33.5618 40.4792 33.2572 40.402 32.9439L38.3889 24.7974H39.3817H39.3814Z" fill="url(#paint9_linear_484_41)"/>
<path fill-rule="evenodd" clip-rule="evenodd" d="M41.5663 24.7974L43.8458 31.1821C43.9613 31.5054 43.8129 31.8602 43.4385 31.8608C43.1235 31.8611 42.8284 31.5936 42.7318 31.3037L40.5648 24.7974H41.566H41.5663Z" fill="white"/>
<path fill-rule="evenodd" clip-rule="evenodd" d="M41.5663 24.7974L43.8458 31.1821C43.9613 31.5054 43.8129 31.8602 43.4385 31.8608C43.1235 31.8611 42.8284 31.5936 42.7318 31.3037L40.5648 24.7974H41.566H41.5663Z" fill="url(#paint10_linear_484_41)"/>
<path fill-rule="evenodd" clip-rule="evenodd" d="M22.9648 24.2536C22.6558 24.191 22.4621 23.9172 22.5924 23.5861C22.7161 23.2722 23.0853 23.0552 23.417 23.0552H23.7124L24.4096 21.0933C24.4802 20.8945 24.7099 20.7734 24.9136 20.7734C25.022 20.7734 25.1321 20.8069 25.2099 20.8855C25.297 20.9737 25.3229 21.0965 25.284 21.2138L24.6739 23.0555L25.7544 23.0552L26.2786 21.1075C26.3348 20.8988 26.5639 20.7737 26.7697 20.7737C26.8772 20.7737 26.9853 20.806 27.0651 20.8804C27.1539 20.9631 27.1893 21.0818 27.1605 21.2L26.706 23.0552L27.7934 23.0549L28.1471 21.1225C28.1871 20.9043 28.416 20.774 28.6246 20.774C28.731 20.774 28.8388 20.8057 28.9198 20.876C29.0091 20.9533 29.0541 21.0674 29.0353 21.185L28.7379 23.0549L29.8302 23.0546L30.0161 21.138C30.038 20.9106 30.2663 20.774 30.479 20.774C30.5844 20.774 30.6908 20.8049 30.7738 20.8717C30.8643 20.9446 30.9168 21.0524 30.9084 21.1694L30.7709 23.0543L31.8655 23.054L31.886 21.1539C31.8886 20.9187 32.1151 20.7743 32.3324 20.7743C32.4373 20.7743 32.5434 20.8049 32.6276 20.8683C32.7189 20.9371 32.7783 21.0383 32.7797 21.1536L32.8048 23.054L33.8986 23.0537L33.757 21.17C33.7389 20.9288 33.9623 20.7743 34.1856 20.7743C34.2902 20.7743 34.3954 20.8046 34.4813 20.8651C34.5727 20.9296 34.6372 21.0253 34.6485 21.1377L34.8384 23.0535L35.9287 23.0532L35.6278 21.1853C35.588 20.9386 35.8082 20.774 36.0382 20.774C36.142 20.774 36.2477 20.8043 36.3342 20.8619C36.4253 20.9227 36.4956 21.0126 36.5158 21.1219L36.8735 23.0526L37.9574 23.0523L37.4997 21.2003C37.438 20.9504 37.6536 20.774 37.8897 20.774C37.9937 20.774 38.0995 20.804 38.1871 20.8596C38.2779 20.917 38.352 21.002 38.3805 21.1072L38.9079 23.052L39.9838 23.0517L39.3716 21.2141C39.2878 20.9628 39.501 20.774 39.7408 20.774C39.8446 20.774 39.9498 20.804 40.0388 20.857C40.1299 20.9115 40.2077 20.9922 40.2438 21.0933L40.943 23.0517L41.2378 23.0514C41.5687 23.0514 41.9361 23.2685 42.0598 23.5812C42.1952 23.9236 41.9831 24.206 41.6543 24.2544H22.9651L22.9648 24.2536Z" fill="white"/>
<path fill-rule="evenodd" clip-rule="evenodd" d="M22.9648 24.2536C22.6558 24.191 22.4621 23.9172 22.5924 23.5861C22.7161 23.2722 23.0853 23.0552 23.417 23.0552H23.7124L24.4096 21.0933C24.4802 20.8945 24.7099 20.7734 24.9136 20.7734C25.022 20.7734 25.1321 20.8069 25.2099 20.8855C25.297 20.9737 25.3229 21.0965 25.284 21.2138L24.6739 23.0555L25.7544 23.0552L26.2786 21.1075C26.3348 20.8988 26.5639 20.7737 26.7697 20.7737C26.8772 20.7737 26.9853 20.806 27.0651 20.8804C27.1539 20.9631 27.1893 21.0818 27.1605 21.2L26.706 23.0552L27.7934 23.0549L28.1471 21.1225C28.1871 20.9043 28.416 20.774 28.6246 20.774C28.731 20.774 28.8388 20.8057 28.9198 20.876C29.0091 20.9533 29.0541 21.0674 29.0353 21.185L28.7379 23.0549L29.8302 23.0546L30.0161 21.138C30.038 20.9106 30.2663 20.774 30.479 20.774C30.5844 20.774 30.6908 20.8049 30.7738 20.8717C30.8643 20.9446 30.9168 21.0524 30.9084 21.1694L30.7709 23.0543L31.8655 23.054L31.886 21.1539C31.8886 20.9187 32.1151 20.7743 32.3324 20.7743C32.4373 20.7743 32.5434 20.8049 32.6276 20.8683C32.7189 20.9371 32.7783 21.0383 32.7797 21.1536L32.8048 23.054L33.8986 23.0537L33.757 21.17C33.7389 20.9288 33.9623 20.7743 34.1856 20.7743C34.2902 20.7743 34.3954 20.8046 34.4813 20.8651C34.5727 20.9296 34.6372 21.0253 34.6485 21.1377L34.8384 23.0535L35.9287 23.0532L35.6278 21.1853C35.588 20.9386 35.8082 20.774 36.0382 20.774C36.142 20.774 36.2477 20.8043 36.3342 20.8619C36.4253 20.9227 36.4956 21.0126 36.5158 21.1219L36.8735 23.0526L37.9574 23.0523L37.4997 21.2003C37.438 20.9504 37.6536 20.774 37.8897 20.774C37.9937 20.774 38.0995 20.804 38.1871 20.8596C38.2779 20.917 38.352 21.002 38.3805 21.1072L38.9079 23.052L39.9838 23.0517L39.3716 21.2141C39.2878 20.9628 39.501 20.774 39.7408 20.774C39.8446 20.774 39.9498 20.804 40.0388 20.857C40.1299 20.9115 40.2077 20.9922 40.2438 21.0933L40.943 23.0517L41.2378 23.0514C41.5687 23.0514 41.9361 23.2685 42.0598 23.5812C42.1952 23.9236 41.9831 24.206 41.6543 24.2544H22.9651L22.9648 24.2536Z" fill="url(#paint11_linear_484_41)"/>
<path fill-rule="evenodd" clip-rule="evenodd" d="M24.0966 24.7974L21.9338 31.327C21.8376 31.6178 21.5416 31.8864 21.226 31.8864C20.851 31.887 20.7003 31.5322 20.8156 31.2074L23.0933 24.7974H24.0966Z" fill="white"/>
<path fill-rule="evenodd" clip-rule="evenodd" d="M24.0966 24.7974L21.9338 31.327C21.8376 31.6178 21.5416 31.8864 21.226 31.8864C20.851 31.887 20.7003 31.5322 20.8156 31.2074L23.0933 24.7974H24.0966Z" fill="url(#paint12_linear_484_41)"/>
<path d="M32.3023 47.6282C33.2271 47.6282 33.9768 46.6287 33.9768 45.3956C33.9768 44.1626 33.2271 43.1631 32.3023 43.1631C31.3776 43.1631 30.6279 44.1626 30.6279 45.3956C30.6279 46.6287 31.3776 47.6282 32.3023 47.6282Z" fill="white"/>
<path d="M32.3023 47.6282C33.2271 47.6282 33.9768 46.6287 33.9768 45.3956C33.9768 44.1626 33.2271 43.1631 32.3023 43.1631C31.3776 43.1631 30.6279 44.1626 30.6279 45.3956C30.6279 46.6287 31.3776 47.6282 32.3023 47.6282Z" fill="url(#paint13_linear_484_41)"/>
<defs>
<linearGradient id="paint0_linear_484_41" x1="32.3024" y1="8" x2="32.3024" y2="56" gradientUnits="userSpaceOnUse">
<stop stop-color="#0192C9"/>
<stop offset="0.348958" stop-color="#00F2F4"/>
<stop offset="0.666667" stop-color="#ACD2C3"/>
<stop offset="1" stop-color="#D2AC6E" stop-opacity="0.56"/>
</linearGradient>
<linearGradient id="paint1_linear_484_41" x1="32.4419" y1="8.55811" x2="32.4419" y2="55.4418" gradientUnits="userSpaceOnUse">
<stop stop-color="#0192C9"/>
<stop offset="0.348958" stop-color="#00F2F4"/>
<stop offset="0.666667" stop-color="#ACD2C3"/>
<stop offset="1" stop-color="#D2AC6E" stop-opacity="0.56"/>
</linearGradient>
<linearGradient id="paint2_linear_484_41" x1="32.4419" y1="8.55811" x2="32.4419" y2="55.4418" gradientUnits="userSpaceOnUse">
<stop stop-color="#0192C9"/>
<stop offset="0.348958" stop-color="#00F2F4"/>
<stop offset="0.666667" stop-color="#ACD2C3"/>
<stop offset="1" stop-color="#D2AC6E" stop-opacity="0.56"/>
</linearGradient>
<linearGradient id="paint3_linear_484_41" x1="24.6827" y1="24.7974" x2="24.6827" y2="33.5851" gradientUnits="userSpaceOnUse">
<stop stop-color="#0192C9"/>
<stop offset="0.348958" stop-color="#00F2F4"/>
<stop offset="0.666667" stop-color="#ACD2C3"/>
<stop offset="1" stop-color="#D2AC6E" stop-opacity="0.56"/>
</linearGradient>
<linearGradient id="paint4_linear_484_41" x1="27.0328" y1="24.7974" x2="27.0328" y2="35.7043" gradientUnits="userSpaceOnUse">
<stop stop-color="#0192C9"/>
<stop offset="0.348958" stop-color="#00F2F4"/>
<stop offset="0.666667" stop-color="#ACD2C3"/>
<stop offset="1" stop-color="#D2AC6E" stop-opacity="0.56"/>
</linearGradient>
<linearGradient id="paint5_linear_484_41" x1="29.4961" y1="24.7974" x2="29.4961" y2="39.1634" gradientUnits="userSpaceOnUse">
<stop stop-color="#0192C9"/>
<stop offset="0.348958" stop-color="#00F2F4"/>
<stop offset="0.666667" stop-color="#ACD2C3"/>
<stop offset="1" stop-color="#D2AC6E" stop-opacity="0.56"/>
</linearGradient>
<linearGradient id="paint6_linear_484_41" x1="32.4513" y1="24.7441" x2="32.4513" y2="41.4883" gradientUnits="userSpaceOnUse">
<stop stop-color="#0192C9"/>
<stop offset="0.348958" stop-color="#00F2F4"/>
<stop offset="0.666667" stop-color="#ACD2C3"/>
<stop offset="1" stop-color="#D2AC6E" stop-opacity="0.56"/>
</linearGradient>
<linearGradient id="paint7_linear_484_41" x1="35.1932" y1="24.7974" x2="35.1932" y2="39.1499" gradientUnits="userSpaceOnUse">
<stop stop-color="#0192C9"/>
<stop offset="0.348958" stop-color="#00F2F4"/>
<stop offset="0.666667" stop-color="#ACD2C3"/>
<stop offset="1" stop-color="#D2AC6E" stop-opacity="0.56"/>
</linearGradient>
<linearGradient id="paint8_linear_484_41" x1="37.648" y1="24.7974" x2="37.648" y2="35.6847" gradientUnits="userSpaceOnUse">
<stop stop-color="#0192C9"/>
<stop offset="0.348958" stop-color="#00F2F4"/>
<stop offset="0.666667" stop-color="#ACD2C3"/>
<stop offset="1" stop-color="#D2AC6E" stop-opacity="0.56"/>
</linearGradient>
<linearGradient id="paint9_linear_484_41" x1="39.9894" y1="24.7974" x2="39.9894" y2="33.5612" gradientUnits="userSpaceOnUse">
<stop stop-color="#0192C9"/>
<stop offset="0.348958" stop-color="#00F2F4"/>
<stop offset="0.666667" stop-color="#ACD2C3"/>
<stop offset="1" stop-color="#D2AC6E" stop-opacity="0.56"/>
</linearGradient>
<linearGradient id="paint10_linear_484_41" x1="42.2245" y1="24.7974" x2="42.2245" y2="31.8608" gradientUnits="userSpaceOnUse">
<stop stop-color="#0192C9"/>
<stop offset="0.348958" stop-color="#00F2F4"/>
<stop offset="0.666667" stop-color="#ACD2C3"/>
<stop offset="1" stop-color="#D2AC6E" stop-opacity="0.56"/>
</linearGradient>
<linearGradient id="paint11_linear_484_41" x1="32.3262" y1="20.7734" x2="32.3262" y2="24.2544" gradientUnits="userSpaceOnUse">
<stop stop-color="#0192C9"/>
<stop offset="0.348958" stop-color="#00F2F4"/>
<stop offset="0.666667" stop-color="#ACD2C3"/>
<stop offset="1" stop-color="#D2AC6E" stop-opacity="0.56"/>
</linearGradient>
<linearGradient id="paint12_linear_484_41" x1="22.4371" y1="24.7974" x2="22.4371" y2="31.8864" gradientUnits="userSpaceOnUse">
<stop stop-color="#0192C9"/>
<stop offset="0.348958" stop-color="#00F2F4"/>
<stop offset="0.666667" stop-color="#ACD2C3"/>
<stop offset="1" stop-color="#D2AC6E" stop-opacity="0.56"/>
</linearGradient>
<linearGradient id="paint13_linear_484_41" x1="32.3023" y1="43.1631" x2="32.3023" y2="47.6282" gradientUnits="userSpaceOnUse">
<stop stop-color="#0192C9"/>
<stop offset="0.348958" stop-color="#00F2F4"/>
<stop offset="0.666667" stop-color="#ACD2C3"/>
<stop offset="1" stop-color="#D2AC6E" stop-opacity="0.56"/>
</linearGradient>
</defs>
</svg>
